<svg width="502" height="502" viewBox="0 0 502 502" fill="none" xmlns="http://www.w3.org/2000/svg">
<path d="M319.01 10H182.99C97.3983 10 28 79.3983 28 164.99V336.172C28 421.763 97.3983 491.162 182.99 491.162H319.01C404.602 491.162 474 421.763 474 336.172V164.99C474 79.3983 404.602 10 319.01 10ZM434.559 255.67L415.011 282.851C412.582 286.205 407.84 288.403 402.751 288.403H342.027L384.939 331.314C388.524 334.9 390.375 339.758 389.681 343.922L384.245 376.886C383.666 380.703 380.891 383.479 377.074 384.057L344.109 389.493C339.946 390.187 335.203 388.337 331.502 384.751L288.591 341.84V402.563C288.591 407.652 286.509 412.395 283.039 414.824L255.858 434.371C252.619 436.684 248.802 436.684 245.679 434.371L218.498 414.824C215.144 412.395 212.947 407.652 212.947 402.563V341.84L170.035 384.751C166.45 388.337 161.592 390.187 157.428 389.493L124.464 384.057C120.647 383.479 117.871 380.703 117.293 376.886L111.856 343.922C111.162 339.758 113.013 335.016 116.599 331.314L159.51 288.403H98.7863C93.6971 288.403 88.9549 286.321 86.5259 282.851L66.9787 255.67C64.6655 252.432 64.6655 248.615 66.9787 245.492L86.5259 218.311C88.9549 214.956 93.6971 212.759 98.7863 212.759H159.51L116.599 169.848C113.013 166.262 111.162 161.404 111.856 157.24L117.293 124.276C117.871 120.459 120.647 117.683 124.464 117.105L157.428 111.669C161.592 110.975 166.334 112.825 170.035 116.411L212.947 159.322V98.5985C212.947 93.5093 215.029 88.7671 218.498 86.3382L245.679 66.791C248.918 64.4777 252.735 64.4777 255.858 66.791L283.039 86.3382C286.393 88.7671 288.591 93.5093 288.591 98.5985V159.322L331.502 116.411C335.088 112.825 339.946 110.975 344.109 111.669L377.074 117.105C380.891 117.683 383.666 120.459 384.245 124.276L389.681 157.24C390.375 161.404 388.524 166.146 384.939 169.848L342.027 212.759H402.751C407.84 212.759 412.582 214.841 415.011 218.311L434.559 245.492C436.872 248.73 436.872 252.547 434.559 255.67Z" fill="#3651E9"/>
<path d="M250.999 288.405C271.888 288.405 288.821 271.471 288.821 250.583C288.821 229.694 271.888 212.761 250.999 212.761C230.111 212.761 213.177 229.694 213.177 250.583C213.177 271.471 230.111 288.405 250.999 288.405Z" fill="#3651E9"/>
</svg>
