<svg width="1682" height="367" viewBox="0 0 1682 367" fill="none" xmlns="http://www.w3.org/2000/svg">
<g clip-path="url(#clip0_3657_18)">
<path d="M633.51 244.256L643.83 286.45H524.488C522.574 286.45 520.743 286.45 518.829 286.283C453.499 284.286 412.387 245.005 412.387 170.021C412.387 95.037 462.487 53.5088 524.488 53.5088C595.061 53.5088 635.924 101.445 636.423 170.021C636.673 209.469 616.533 242.092 598.141 253.41L633.51 244.172V244.256ZM592.315 169.854C592.315 123.499 563.021 91.7913 525.404 91.7913C487.787 91.7913 457.91 121.252 458.077 170.52C458.077 221.619 485.79 247.917 525.404 247.917C565.018 247.917 592.315 217.375 592.315 169.854Z" fill="white"/>
<path d="M831.082 204.392C830.916 241.093 815.935 289.196 745.446 290.527C701.92 291.443 661.307 263.896 659.976 205.973C658.394 142.64 708.328 118.256 742.782 118.256C799.374 118.256 831.248 156.955 831.082 204.392ZM781.814 202.977C781.647 168.023 765.419 149.797 742.45 150.546C720.978 151.212 708.162 171.102 708.328 198.233C708.495 226.362 719.23 253.327 742.866 253.327C769.58 253.327 781.98 237.598 781.814 202.977Z" fill="white"/>
<path d="M930.283 157.618C919.048 159.616 906.481 165.275 901.404 181.087C898.824 189.243 899.24 193.487 899.24 215.541V286.364L852.469 286.198V122.415H897.909L898.075 146.55C898.075 146.55 909.976 120.917 947.843 120.584C966.152 120.418 973.975 125.577 973.975 125.577L956.082 163.111C956.082 163.111 945.263 155.038 930.366 157.618H930.283Z" fill="white"/>
<path d="M1097.31 219.457H1026.07C1027.24 239.098 1043.05 253.828 1060.36 253.828C1087.41 253.828 1096.48 235.02 1096.48 235.02L1136.18 253.162C1136.18 253.162 1119.28 290.945 1062.19 290.529C1027.24 290.28 1003.35 275.716 988.623 250.998C975.474 228.778 972.561 182.339 990.454 155.875C1008.01 130.242 1032.23 119.756 1060.11 119.756C1092.82 119.756 1112.96 131.074 1127.61 155.459C1141.84 179.094 1140.67 219.707 1140.67 219.707L1097.31 219.457ZM1094.4 186.917C1093.07 169.939 1083.08 153.794 1060.69 153.877C1040.64 154.044 1028.65 169.273 1026.49 186.917H1094.4Z" fill="white"/>
<path d="M1166.3 286.449V60.332H1214.74V286.449H1166.3Z" fill="white"/>
<path d="M1248.11 286.449V60.332H1296.55V286.449H1248.11Z" fill="white"/>
<path d="M1427.95 297.931C1401.66 361.929 1339.66 355.937 1339.66 355.937L1343.65 307.335C1343.65 307.335 1370.61 314.409 1387.09 283.201L1319.02 121.748L1371.45 121.914L1409.65 229.022L1443.93 121.914L1495.28 121.748L1428.04 298.014L1427.95 297.931Z" fill="white"/>
<path d="M232.39 10.8965H134.52C72.9347 10.8965 23.001 60.8302 23.001 122.415V245.585C23.001 307.17 72.9347 357.104 134.52 357.104H232.39C293.975 357.104 343.909 307.17 343.909 245.585V122.415C343.909 60.8302 293.975 10.8965 232.39 10.8965ZM315.53 187.662L301.465 207.219C299.717 209.633 296.305 211.214 292.643 211.214H248.951L279.827 242.09C282.407 244.67 283.738 248.165 283.239 251.161L279.328 274.88C278.911 277.626 276.914 279.623 274.168 280.039L250.449 283.951C247.453 284.45 244.041 283.119 241.378 280.539L210.502 249.663V293.355C210.502 297.017 209.004 300.429 206.507 302.177L186.95 316.241C184.62 317.906 181.874 317.906 179.626 316.241L160.069 302.177C157.656 300.429 156.074 297.017 156.074 293.355V249.663L125.199 280.539C122.619 283.119 119.123 284.45 116.127 283.951L92.4089 280.039C89.6625 279.623 87.6652 277.626 87.2491 274.88L83.3376 251.161C82.8383 248.165 84.1698 244.753 86.7497 242.09L117.625 211.214H73.9334C70.2716 211.214 66.8595 209.716 65.1118 207.219L51.0471 187.662C49.3826 185.332 49.3826 182.585 51.0471 180.338L65.1118 160.781C66.8595 158.367 70.2716 156.786 73.9334 156.786H117.625L86.7497 125.911C84.1698 123.331 82.8383 119.835 83.3376 116.839L87.2491 93.1207C87.6652 90.3744 89.6625 88.377 92.4089 87.9609L116.127 84.0494C119.123 83.5501 122.536 84.8817 125.199 87.4616L156.074 118.337V74.6452C156.074 70.9834 157.572 67.5713 160.069 65.8236L179.626 51.7589C181.957 50.0945 184.703 50.0945 186.95 51.7589L206.507 65.8236C208.921 67.5713 210.502 70.9834 210.502 74.6452V118.337L241.378 87.4616C243.958 84.8817 247.453 83.5501 250.449 84.0494L274.168 87.9609C276.914 88.377 278.911 90.3744 279.328 93.1207L283.239 116.839C283.738 119.835 282.407 123.247 279.827 125.911L248.951 156.786H292.643C296.305 156.786 299.717 158.284 301.465 160.781L315.53 180.338C317.194 182.669 317.194 185.415 315.53 187.662Z" fill="white"/>
<path d="M183.454 211.214C198.484 211.214 210.668 199.03 210.668 184C210.668 168.97 198.484 156.786 183.454 156.786C168.424 156.786 156.24 168.97 156.24 184C156.24 199.03 168.424 211.214 183.454 211.214Z" fill="white"/>
</g>
<defs>
<clipPath id="clip0_3657_18">
<rect width="1496.51" height="346.207" fill="white" transform="translate(23 10.8965)"/>
</clipPath>
</defs>
</svg>
