<svg width="1682" height="367" viewBox="0 0 1682 367" fill="none" xmlns="http://www.w3.org/2000/svg">
<g clip-path="url(#clip0_3657_30)">
<path d="M633.51 244.256L643.83 286.45H524.488C522.574 286.45 520.743 286.45 518.829 286.283C453.499 284.286 412.387 245.005 412.387 170.021C412.387 95.037 462.487 53.5088 524.488 53.5088C595.061 53.5088 635.923 101.445 636.423 170.021C636.672 209.469 616.532 242.092 598.14 253.41L633.51 244.172V244.256ZM592.315 169.854C592.315 123.499 563.02 91.7913 525.403 91.7913C487.787 91.7913 457.91 121.252 458.076 170.52C458.076 221.619 485.789 247.917 525.403 247.917C565.018 247.917 592.315 217.375 592.315 169.854Z" fill="black"/>
<path d="M831.081 204.392C830.915 241.093 815.935 289.196 745.445 290.527C701.919 291.443 661.307 263.896 659.975 205.973C658.394 142.64 708.328 118.256 742.782 118.256C799.374 118.256 831.248 156.955 831.081 204.392ZM781.813 202.977C781.647 168.023 765.419 149.797 742.449 150.546C720.978 151.212 708.161 171.102 708.328 198.233C708.494 226.362 719.23 253.327 742.865 253.327C769.58 253.327 781.98 237.598 781.813 202.977Z" fill="black"/>
<path d="M930.282 157.618C919.047 159.616 906.48 165.275 901.404 181.087C898.824 189.243 899.24 193.487 899.24 215.541V286.364L852.469 286.198V122.415H897.908L898.075 146.55C898.075 146.55 909.976 120.917 947.842 120.584C966.151 120.418 973.974 125.577 973.974 125.577L956.081 163.111C956.081 163.111 945.262 155.038 930.365 157.618H930.282Z" fill="black"/>
<path d="M1097.31 219.457H1026.07C1027.24 239.098 1043.05 253.828 1060.36 253.828C1087.41 253.828 1096.48 235.02 1096.48 235.02L1136.18 253.162C1136.18 253.162 1119.28 290.945 1062.19 290.529C1027.24 290.28 1003.35 275.716 988.622 250.998C975.473 228.778 972.56 182.339 990.453 155.875C1008.01 130.242 1032.23 119.756 1060.11 119.756C1092.82 119.756 1112.96 131.074 1127.6 155.459C1141.84 179.094 1140.67 219.707 1140.67 219.707L1097.31 219.457ZM1094.4 186.917C1093.07 169.939 1083.08 153.794 1060.69 153.877C1040.64 154.044 1028.65 169.273 1026.49 186.917H1094.4Z" fill="black"/>
<path d="M1166.3 286.449V60.332H1214.74V286.449H1166.3Z" fill="black"/>
<path d="M1248.11 286.449V60.332H1296.55V286.449H1248.11Z" fill="black"/>
<path d="M1427.95 297.931C1401.66 361.929 1339.65 355.937 1339.65 355.937L1343.65 307.335C1343.65 307.335 1370.61 314.409 1387.09 283.201L1319.02 121.748L1371.45 121.914L1409.65 229.022L1443.93 121.914L1495.28 121.748L1428.04 298.014L1427.95 297.931Z" fill="black"/>
<path d="M232.389 10.8965H134.519C72.9337 10.8965 23 60.8302 23 122.415V245.585C23 307.17 72.9337 357.104 134.519 357.104H232.389C293.974 357.104 343.908 307.17 343.908 245.585V122.415C343.908 60.8302 293.974 10.8965 232.389 10.8965ZM315.529 187.662L301.464 207.219C299.716 209.633 296.304 211.214 292.642 211.214H248.95L279.826 242.09C282.406 244.67 283.737 248.165 283.238 251.161L279.327 274.88C278.91 277.626 276.913 279.623 274.167 280.039L250.448 283.951C247.452 284.45 244.04 283.119 241.377 280.539L210.501 249.663V293.355C210.501 297.017 209.003 300.429 206.507 302.177L186.949 316.241C184.619 317.906 181.873 317.906 179.626 316.241L160.068 302.177C157.655 300.429 156.073 297.017 156.073 293.355V249.663L125.198 280.539C122.618 283.119 119.122 284.45 116.126 283.951L92.4079 280.039C89.6616 279.623 87.6642 277.626 87.2481 274.88L83.3366 251.161C82.8373 248.165 84.1688 244.753 86.7488 242.09L117.624 211.214H73.9324C70.2706 211.214 66.8585 209.716 65.1108 207.219L51.0461 187.662C49.3817 185.332 49.3817 182.585 51.0461 180.338L65.1108 160.781C66.8585 158.367 70.2706 156.786 73.9324 156.786H117.624L86.7488 125.911C84.1688 123.331 82.8373 119.835 83.3366 116.839L87.2481 93.1207C87.6642 90.3744 89.6616 88.377 92.4079 87.9609L116.126 84.0494C119.122 83.5501 122.535 84.8817 125.198 87.4616L156.073 118.337V74.6452C156.073 70.9834 157.571 67.5713 160.068 65.8236L179.626 51.7589C181.956 50.0945 184.702 50.0945 186.949 51.7589L206.507 65.8236C208.92 67.5713 210.501 70.9834 210.501 74.6452V118.337L241.377 87.4616C243.957 84.8817 247.452 83.5501 250.448 84.0494L274.167 87.9609C276.913 88.377 278.91 90.3744 279.327 93.1207L283.238 116.839C283.737 119.835 282.406 123.247 279.826 125.911L248.95 156.786H292.642C296.304 156.786 299.716 158.284 301.464 160.781L315.529 180.338C317.193 182.669 317.193 185.415 315.529 187.662Z" fill="black"/>
<path d="M183.454 211.214C198.483 211.214 210.668 199.03 210.668 184C210.668 168.97 198.483 156.786 183.454 156.786C168.424 156.786 156.24 168.97 156.24 184C156.24 199.03 168.424 211.214 183.454 211.214Z" fill="black"/>
</g>
<defs>
<clipPath id="clip0_3657_30">
<rect width="1496.51" height="346.207" fill="white" transform="translate(23 10.8965)"/>
</clipPath>
</defs>
</svg>
